<svg width="97" height="46" viewBox="0 0 97 46" fill="none" xmlns="http://www.w3.org/2000/svg">
<path d="M18.5538 34.2951C19.6352 34.3919 20.3193 33.7178 22.6687 33.7178C25.0183 33.7178 25.7022 34.3919 26.7835 34.2951C31.082 33.9112 36.2079 21.8469 32.0265 17.068C31.7895 16.7977 30.1076 14.7787 27.6011 14.5116C25.739 14.3147 25.2815 15.2759 22.8521 15.2992C20.3224 15.326 19.7886 14.2947 17.8328 14.4916C15.2565 14.7519 13.5343 16.8312 13.3073 17.0679C9.41617 21.1527 14.1286 33.9011 18.5538 34.295L18.5538 34.2951Z" fill="#E13988"/>
<path d="M21.2874 14.8421C21.6446 14.9189 22.0517 14.9755 22.549 14.9855C22.3755 14.7352 22.2019 14.485 22.0284 14.2313L22.9594 12.9467C23.8405 13.1069 26.0932 13.3671 27.7919 12.2392C29.951 10.8076 31.1292 8.08434 31.1292 8.08434C31.129 8.0841 27.3413 6.87265 25.1821 8.30782C23.4734 9.43917 22.8425 11.6284 22.6491 12.4962L21.7146 13.7878C20.7033 12.3528 19.6188 10.9845 18.1503 10.2635L17.4829 11.6619C19.335 12.5428 20.4896 13.7943 21.2874 14.842L21.2874 14.8421Z" fill="#E13988"/>
<path d="M44.9486 34.2951C46.03 34.3919 46.7141 33.7178 49.0635 33.7178C51.4131 33.7178 52.097 34.3919 53.1784 34.2951C57.4769 33.9112 62.6027 21.8469 58.4213 17.068C58.1844 16.7977 56.5024 14.7787 53.9959 14.5116C52.1338 14.3147 51.6764 15.2759 49.2469 15.2992C46.7172 15.326 46.1834 14.2947 44.2277 14.4916C41.6514 14.7519 39.9291 16.8312 39.7021 17.0679C35.811 21.1527 40.5234 33.9011 44.9486 34.295L44.9486 34.2951Z" fill="white"/>
<path d="M47.6823 14.8421C48.0394 14.9189 48.4465 14.9755 48.9438 14.9855C48.7704 14.7352 48.5967 14.485 48.4233 14.2313L49.3542 12.9467C50.2353 13.1069 52.4881 13.3671 54.1868 12.2392C56.3459 10.8076 57.5241 8.08434 57.5241 8.08434C57.5238 8.0841 53.7361 6.87265 51.5769 8.30782C49.8682 9.43917 49.2373 11.6284 49.0439 12.4962L48.1094 13.7878C47.0982 12.3528 46.0136 10.9845 44.5451 10.2635L43.8777 11.6619C45.7298 12.5428 46.8845 13.7943 47.6823 14.842L47.6823 14.8421Z" fill="white"/>
<path d="M70.5865 34.2951C71.6678 34.3919 72.352 33.7178 74.7014 33.7178C77.0509 33.7178 77.7349 34.3919 78.8162 34.2951C83.1147 33.9112 88.2406 21.8469 84.0592 17.068C83.8222 16.7977 82.1403 14.7787 79.6338 14.5116C77.7717 14.3147 77.3142 15.2759 74.8848 15.2992C72.355 15.326 71.8212 14.2947 69.8655 14.4916C67.2892 14.7519 65.567 16.8312 65.34 17.0679C61.4489 21.1527 66.1613 33.9011 70.5864 34.295L70.5865 34.2951Z" fill="#E13988"/>
<path d="M73.3201 14.8421C73.6772 14.9189 74.0844 14.9755 74.5816 14.9855C74.4082 14.7352 74.2345 14.485 74.0611 14.2313L74.992 12.9467C75.8732 13.1069 78.1259 13.3671 79.8246 12.2392C81.9837 10.8076 83.1619 8.08434 83.1619 8.08434C83.1617 8.0841 79.3739 6.87265 77.2148 8.30782C75.5061 9.43917 74.8752 11.6284 74.6817 12.4962L73.7473 13.7878C72.736 12.3528 71.6514 10.9845 70.183 10.2635L69.5156 11.6619C71.3677 12.5428 72.5223 13.7943 73.3201 14.842L73.3201 14.8421Z" fill="#E13988"/>
<rect x="1.32571" y="1.19502" width="93.5981" height="42.6514" stroke="#D9D9D9" stroke-width="2.39017"/>
</svg>
