<svg width="66" height="46" viewBox="0 0 66 46" fill="none" xmlns="http://www.w3.org/2000/svg">
<rect x="2.12048" y="1.19502" width="61.8331" height="42" stroke="#D9D9D9" stroke-width="2.39017"/>
<path d="M45.3008 17.72C44.0414 17.72 42.849 18.0004 41.7707 18.491L39.8625 15.1811C39.8614 15.1788 39.8605 15.1772 39.8593 15.1749L37.9472 11.8569H41.4556C41.8899 11.8569 42.2434 12.2111 42.2434 12.6461C42.2434 13.0812 41.8899 13.4357 41.4556 13.4357C40.9898 13.4357 40.6129 13.8138 40.6129 14.2799C40.6129 14.7461 40.9899 15.1243 41.4556 15.1243C42.8194 15.1243 43.929 14.0121 43.929 12.6461C43.929 11.3379 42.9086 10.2748 41.6259 10.1853C41.5709 10.1741 41.5141 10.1679 41.4556 10.1679H36.5542C36.0882 10.1679 35.7113 10.5462 35.7113 11.0123C35.7113 11.0268 35.7147 11.0403 35.7159 11.055C35.7011 11.2216 35.735 11.3939 35.8242 11.5496L37.6623 14.738H27.8851L26.2168 11.8435H27.2024C27.6682 11.8435 28.0452 11.4652 28.0452 10.9991C28.0452 10.5331 27.6682 10.155 27.2024 10.155H22.3116C21.8458 10.155 21.4688 10.5331 21.4688 10.9991C21.4688 11.4651 21.8458 11.8435 22.3116 11.8435H24.2704L26.4252 15.5824L24.7491 18.4905C23.6715 17.9997 22.4784 17.7195 21.2193 17.7195C16.4943 17.7195 12.6505 21.5698 12.6505 26.3025C12.6505 31.0351 16.4945 34.886 21.2193 34.886C25.6595 34.886 29.3206 31.4847 29.7457 27.1469H33.5773H33.578H33.5784C33.5796 27.1469 33.5801 27.1464 33.5812 27.1464C33.6477 27.1459 33.7116 27.1363 33.7735 27.1216C33.7813 27.1199 33.7898 27.1195 33.7977 27.1172C33.8094 27.1137 33.8195 27.1075 33.8312 27.1036C33.8791 27.0884 33.9251 27.0693 33.969 27.0461C33.9784 27.041 33.9893 27.0394 33.9987 27.0339C34.0005 27.0328 34.0021 27.0309 34.0037 27.0305C34.0106 27.0266 34.0169 27.0208 34.0235 27.0169C34.0488 27.0013 34.0718 26.9831 34.0955 26.9647C34.1158 26.9488 34.1358 26.9332 34.1544 26.9162C34.1629 26.9076 34.1723 26.9005 34.1802 26.892C34.1894 26.883 34.1965 26.8718 34.205 26.8621C34.2066 26.86 34.2085 26.8577 34.2101 26.8559C34.228 26.8352 34.246 26.8154 34.2618 26.7929C34.2775 26.771 34.2903 26.7473 34.3039 26.7236C34.3055 26.7204 34.3078 26.7174 34.3094 26.7142C34.314 26.7064 34.3207 26.7006 34.3253 26.6921L39.1616 17.3419L40.3124 19.3382C38.1484 20.8977 36.7313 23.435 36.7313 26.3036C36.7313 31.0364 40.5753 34.8865 45.3001 34.8865C50.0251 34.8865 53.8689 31.0363 53.8689 26.3036C53.8689 21.5706 50.0256 17.7201 45.3007 17.7201L45.3008 17.72ZM21.2196 33.1977C17.4241 33.1977 14.3366 30.1049 14.3366 26.303C14.3366 22.501 17.4244 19.4082 21.2196 19.4082C22.1721 19.4082 23.0795 19.6035 23.9054 19.9552L20.4897 25.8807C20.339 26.142 20.339 26.4638 20.4897 26.7251C20.6403 26.9862 20.9184 27.1472 21.2196 27.1472H28.046C27.6283 30.5512 24.7296 33.1975 21.2196 33.1975V33.1977ZM22.6795 25.4586L25.3599 20.8079C26.8101 21.9071 27.813 23.563 28.0457 25.4586H22.6795ZM29.7461 25.4586C29.4993 22.9394 28.157 20.7421 26.2078 19.3376L27.399 17.2708L32.1185 25.4581L29.7461 25.4586ZM33.5373 24.5445L28.8583 16.4267H37.7362L33.5373 24.5445ZM45.3006 33.1975C41.5048 33.1975 38.417 30.1047 38.417 26.3028C38.417 24.0588 39.4976 22.0672 41.1602 20.8077L44.5711 26.725C44.7273 26.9957 45.0104 27.1471 45.3014 27.1471C45.4442 27.1471 45.5891 27.1109 45.7223 27.0339C46.1253 26.8009 46.2635 26.2847 46.0308 25.8806L42.6155 19.9551C43.441 19.6034 44.3491 19.4081 45.3014 19.4081C49.0971 19.4081 52.1849 22.5009 52.1849 26.3028C52.1849 30.1045 49.096 33.1976 45.3008 33.1976L45.3006 33.1975Z" fill="#FFF6F6"/>
</svg>
