<svg width="300" height="42" viewBox="0 0 300 57" fill="none" xmlns="http://www.w3.org/2000/svg">
<path d="M181.101 26.6378H179.672V32.0106H181.101C181.882 32.0106 182.537 31.7485 183.064 31.2243C183.544 30.7478 183.785 30.1164 183.785 29.3301C183.785 28.5439 183.544 27.9125 183.064 27.43C182.605 26.9743 181.944 26.6407 181.101 26.6407V26.6378ZM181.107 30.9325H180.747V27.707H181.095C182.063 27.707 182.707 28.3592 182.707 29.3212C182.707 30.2832 182.075 30.9354 181.107 30.9354V30.9325Z" fill="#ECECEC"/>
<path d="M184.068 32.0345H187.308V30.9594H185.149V29.8783H186.766V28.8001H185.149V27.719H187.308V26.6409H184.068V32.0345Z" fill="#ECECEC"/>
<path d="M160.405 8.77405H158.243V7.68995H159.863V6.61478H158.243V5.53068H160.405V4.45552H157.165V9.84623H160.405V8.77405Z" fill="#ECECEC"/>
<path d="M163.926 8.76803H161.767V4.46738H160.688V9.84022H163.926V8.76803Z" fill="#ECECEC"/>
<path d="M183.031 10.8111H169.575C169.829 9.52452 170.445 8.38979 171.431 7.40398C172.747 6.0697 174.338 5.40554 176.202 5.40554C178.067 5.40554 179.621 6.07268 180.973 7.40398L184.16 4.21721C182.343 2.43321 179.594 0.87854 176.16 0.87854C173.045 0.87854 170.392 1.98646 168.202 4.20231C166.332 6.09055 165.257 8.29151 164.971 10.8082H146.97C156 11.7255 161.352 12.2556 164.903 12.6785C165.013 15.5913 166.112 18.0871 168.202 20.16C170.383 22.358 173.033 23.457 176.16 23.457C179.288 23.457 181.917 22.358 184.133 20.16C186.328 17.9799 187.692 14.9629 187.374 10.8082H183.031V10.8111ZM176.202 18.9627C174.326 18.9627 172.735 18.3016 171.431 16.9762C170.391 15.9368 169.76 14.7276 169.537 13.3516C171.753 13.7656 173.152 14.2421 175.895 15.0999H182.284C181.304 17.1817 179.079 18.9627 176.202 18.9627V18.9627Z" fill="#ECECEC"/>
<path d="M192.907 1.0603H188.44V23.2933H192.907V1.0603Z" fill="#ECECEC"/>
<path d="M198.453 23.2933V13.4589L204.838 23.2933H210.301L205.127 15.24C206.39 14.7426 207.01 14.278 207.79 13.1849C208.728 11.8596 209.196 10.4509 209.196 8.9498V8.36903C209.196 5.90896 208.398 4.67595 207.045 3.32083C205.702 1.99251 203.701 1.0603 201.226 1.0603H193.971L193.986 23.2933H198.453V23.2933ZM198.441 5.48902H200.952C202.03 5.48902 203.129 5.8077 203.71 6.3706C204.299 6.98711 204.591 7.69892 204.591 8.50901C204.591 10.2037 203.281 11.6392 201.655 11.6392H200.166V11.6243H198.441V5.48902V5.48902Z" fill="#ECECEC"/>
<path d="M221.544 23.4451C224.65 23.4451 227.31 22.3521 229.517 20.163C231.733 17.965 232.841 15.3084 232.841 12.1901C232.841 9.07187 231.733 6.42119 229.517 4.20534C227.301 1.98949 224.644 0.881561 221.544 0.881561C218.444 0.881561 215.787 1.98949 213.574 4.20534C211.367 6.43012 210.265 9.09271 210.265 12.1901C210.265 15.2876 211.367 17.9561 213.574 20.163C215.772 22.3431 218.429 23.4362 221.544 23.4451ZM216.758 7.37722C218.062 6.05486 219.659 5.3907 221.544 5.3907C223.429 5.3907 224.993 6.05188 226.315 7.37722C227.649 8.71149 228.317 10.3049 228.317 12.1633C228.317 14.0218 227.649 15.633 226.315 16.9495C224.981 18.2629 223.39 18.9211 221.544 18.9211C219.697 18.9211 218.074 18.2629 216.758 16.9495C215.432 15.6241 214.771 14.0307 214.771 12.1633C214.771 10.2959 215.432 8.72043 216.758 7.37722Z" fill="#ECECEC"/>
<path d="M254.108 29.911C251.904 27.7071 249.28 26.5575 246.24 26.4592C246.067 26.3043 245.847 26.1435 245.57 25.9767C243.33 24.6365 237.102 23.8532 237.102 23.8532C237.102 23.8532 241.311 25.7682 243.372 26.6855C241.165 27.1323 239.205 28.2045 237.498 29.911C236.882 30.5335 236.352 31.1887 235.899 31.8737C235.822 29.8008 233.927 28.0496 233.487 25.0088C233.275 23.5583 234.72 21.4884 237.498 21.137C238.949 20.9523 249.432 21.4914 249.432 21.4914C249.432 21.4914 242.588 18.9569 236.876 19.1653C231.715 19.1147 229.928 21.819 229.859 24.1153C229.752 27.6445 232.855 30.6496 233.102 32.4336C233.236 33.3956 233.076 35.132 232.784 36.7998H226.124C225.546 36.7998 220.9 36.7998 215.93 36.7998C216.192 35.4596 216.835 34.2772 217.862 33.2527C219.232 31.8648 220.888 31.1679 222.833 31.1679C224.778 31.1679 226.395 31.8618 227.804 33.2527L231.122 29.9348C229.231 28.0764 226.365 26.4592 222.789 26.4592C219.542 26.4592 216.778 27.6148 214.497 29.9229C212.546 31.8886 211.426 34.1819 211.132 36.8028C210.741 36.8028 210.357 36.8028 209.982 36.8028V26.6468H205.327V36.8028C204.794 36.8028 204.335 36.8028 203.975 36.8028C204.15 36.1714 204.246 35.5281 204.246 34.8639V34.2593C204.246 31.698 203.415 30.4114 202.003 28.9997C200.603 27.6177 198.518 26.6438 195.939 26.6438H188.38L188.395 49.806H193.05V39.5607L199.704 49.806H209.982V37.9197C210.354 37.9822 210.712 38.0418 211.054 38.0983C211.054 38.146 211.051 38.1907 211.051 38.2383C211.051 41.4936 212.201 44.2634 214.5 46.5418C216.769 48.8321 219.533 49.9758 222.792 49.9758C226.05 49.9758 228.787 48.8321 231.095 46.5418C232.647 44.9991 233.799 43.0572 234.276 40.612C234.714 42.8457 235.786 44.8204 237.498 46.5329C239.789 48.8023 242.556 49.943 245.802 49.952C249.039 49.952 251.809 48.8113 254.105 46.5329C256.413 44.2426 257.569 41.4757 257.569 38.2294C257.569 34.9831 256.413 32.2192 254.105 29.911H254.108ZM196.386 37.6635H194.834V37.6486H193.038V31.2542H195.653C196.776 31.2542 197.923 31.5878 198.527 32.1745C199.141 32.8178 199.448 33.5594 199.448 34.4023C199.448 36.1684 198.084 37.6635 196.386 37.6635V37.6635ZM205.327 49.6988L200.008 41.4132C201.324 40.895 201.967 40.4125 202.78 39.2718C203.316 38.5153 203.701 37.732 203.942 36.9189C204.421 36.9994 204.883 37.0738 205.327 37.1483V49.6988V49.6988ZM222.83 45.2939C220.877 45.2939 219.218 44.6029 217.86 43.224C216.659 42.0237 215.983 40.609 215.825 38.9829C218.467 39.5607 219.265 40.0372 221.633 41.2434H229.183C228.17 43.4235 225.841 45.2939 222.833 45.2939H222.83ZM250.805 43.1883C249.417 44.5583 247.759 45.2433 245.835 45.2433C243.911 45.2433 242.219 44.5583 240.849 43.1883C239.47 41.8093 238.779 40.1474 238.779 38.2026C238.779 36.2578 239.47 34.6167 240.849 33.2169C242.21 31.838 243.872 31.147 245.835 31.147C247.797 31.147 249.426 31.838 250.805 33.2169C252.193 34.6048 252.887 36.2667 252.887 38.2026C252.887 40.1385 252.193 41.8182 250.805 43.1883Z" fill="#ECECEC"/>
<path d="M252.56 21.3514C252.292 22.5695 249.185 23.9186 249.185 23.9186C249.185 23.9186 254.481 23.3885 254.439 20.991C254.397 18.5935 248.188 17.8251 245.906 17.7387C245.09 17.7059 242.639 17.8161 242.639 17.8161C242.639 17.8161 252.828 19.5674 252.56 21.3514V21.3514Z" fill="#ECECEC"/>
<path d="M242.639 22.3252C242.639 22.3252 249.016 26.4472 250.296 26.4472C251.577 26.4472 252.873 24.3862 252.873 24.3862C252.873 24.3862 252.182 24.8568 250.228 24.8062C248.274 24.7555 242.639 22.3223 242.639 22.3223V22.3252Z" fill="#ECECEC"/>
<path d="M233.648 52.1498H232.305C232.141 52.1498 231.987 52.1826 231.85 52.2481C231.713 52.3137 231.59 52.3941 231.483 52.4953C231.376 52.5966 231.287 52.7098 231.218 52.8349C231.15 52.9599 231.102 53.088 231.075 53.2101L230.652 55.1966C230.625 55.3247 230.622 55.4528 230.637 55.5749C230.652 55.7 230.694 55.8131 230.759 55.9144C230.825 56.0157 230.914 56.0991 231.027 56.1616C231.141 56.2242 231.281 56.2569 231.447 56.2569H232.791C232.901 56.2569 232.969 56.1973 232.987 56.0901L233.026 55.9025C233.041 55.8489 233.038 55.8042 233.014 55.7744C232.99 55.7446 232.948 55.7268 232.892 55.7268H231.614C231.519 55.7268 231.441 55.7089 231.385 55.6702C231.325 55.6315 231.281 55.5838 231.248 55.5213C231.215 55.4587 231.194 55.3902 231.191 55.3188C231.185 55.2443 231.191 55.1698 231.206 55.0954L231.337 54.461H233.172C233.282 54.461 233.351 54.4014 233.368 54.2942L233.407 54.1215C233.422 54.0649 233.419 54.0172 233.392 53.9875C233.368 53.9577 233.327 53.9398 233.27 53.9398H231.45L231.587 53.3173C231.602 53.2459 231.629 53.1684 231.671 53.091C231.713 53.0136 231.763 52.9421 231.823 52.8795C231.879 52.817 231.948 52.7664 232.025 52.7276C232.103 52.6889 232.189 52.6711 232.284 52.6711H233.562C233.66 52.6711 233.729 52.6174 233.759 52.5102L233.797 52.3196C233.806 52.26 233.797 52.2154 233.773 52.1826C233.75 52.1558 233.714 52.1409 233.663 52.1409L233.648 52.1498Z" fill="#ECECEC"/>
<path d="M236.376 52.1498H234.837C234.726 52.1498 234.658 52.2094 234.64 52.3166L233.839 56.0782C233.83 56.1378 233.839 56.1824 233.863 56.2152C233.887 56.242 233.922 56.2569 233.973 56.2569H235.522C235.84 56.2569 236.09 56.1705 236.266 56.0008C236.442 55.831 236.558 55.6166 236.615 55.3575L237.097 53.0701C237.154 52.808 237.13 52.5847 237.026 52.4149C236.918 52.2392 236.701 52.1528 236.373 52.1528L236.376 52.1498ZM235.933 55.6225C235.858 55.694 235.73 55.7298 235.554 55.7298H234.443L235.096 52.677H236.219C236.391 52.677 236.495 52.7217 236.531 52.808C236.57 52.9034 236.573 53.0225 236.546 53.1625L236.108 55.2383C236.07 55.417 236.01 55.5451 235.936 55.6196L235.933 55.6225Z" fill="#ECECEC"/>
<path d="M240.552 52.1498H238.271C238.161 52.1498 238.092 52.2094 238.074 52.3166L238.035 52.5043C238.021 52.5579 238.024 52.6025 238.047 52.6323C238.071 52.6621 238.113 52.68 238.169 52.68H239.048L238.396 55.7327H237.505C237.407 55.7327 237.339 55.7863 237.309 55.8936L237.27 56.0842C237.261 56.1437 237.27 56.1884 237.294 56.2212C237.318 56.248 237.353 56.2629 237.404 56.2629H239.685C239.733 56.2629 239.775 56.248 239.813 56.2152C239.852 56.1824 239.876 56.1437 239.888 56.0961L239.927 55.9084C239.942 55.8459 239.921 55.8072 239.9 55.7834C239.87 55.7506 239.831 55.7357 239.784 55.7357H238.923L239.575 52.683H240.451C240.555 52.683 240.624 52.6293 240.653 52.5221L240.692 52.3315C240.701 52.272 240.692 52.2273 240.665 52.1975C240.641 52.1677 240.6 52.1528 240.549 52.1528L240.552 52.1498Z" fill="#ECECEC"/>
<path d="M243.256 52.1498H242.449C242.125 52.1498 241.874 52.2362 241.699 52.409C241.526 52.5787 241.41 52.7961 241.353 53.0582L240.871 55.3455C240.841 55.4736 240.829 55.5957 240.841 55.7059C240.853 55.8191 240.886 55.9174 240.939 56.0008C240.996 56.0842 241.076 56.1467 241.184 56.1914C241.288 56.2361 241.422 56.2569 241.58 56.2569H242.402C242.726 56.2569 242.976 56.1705 243.146 56.0038C243.316 55.837 243.429 55.6196 243.486 55.3575L243.569 54.9435C243.581 54.8929 243.572 54.8512 243.545 54.8154C243.516 54.7797 243.477 54.7618 243.429 54.7618H243.241C243.137 54.7618 243.069 54.8184 243.039 54.9286L242.979 55.2383C242.941 55.417 242.884 55.5481 242.813 55.6196C242.744 55.691 242.616 55.7268 242.434 55.7268H241.755C241.577 55.7268 241.466 55.691 241.425 55.6255C241.383 55.554 241.383 55.4289 241.422 55.2502L241.86 53.1744C241.889 53.0344 241.946 52.9153 242.026 52.817C242.107 52.7247 242.238 52.677 242.419 52.677H243.093C243.265 52.677 243.37 52.7217 243.405 52.808C243.444 52.9034 243.447 53.0225 243.42 53.1595L243.352 53.4722C243.343 53.5318 243.352 53.5764 243.379 53.6062C243.402 53.636 243.444 53.6509 243.495 53.6509H243.682C243.73 53.6509 243.772 53.636 243.81 53.6033C243.849 53.5705 243.873 53.5318 243.885 53.4841L243.974 53.0672C244.031 52.8051 244.01 52.5847 243.912 52.4119C243.81 52.2362 243.59 52.1469 243.259 52.1469L243.256 52.1498Z" fill="#ECECEC"/>
<path d="M247.426 52.1498H245.145C245.035 52.1498 244.966 52.2094 244.948 52.3166L244.909 52.5043C244.895 52.5579 244.898 52.6025 244.921 52.6323C244.945 52.6621 244.987 52.68 245.043 52.68H245.922L245.27 55.7327H244.379C244.281 55.7327 244.213 55.7863 244.183 55.8936L244.144 56.0842C244.135 56.1437 244.144 56.1884 244.168 56.2212C244.192 56.248 244.227 56.2629 244.278 56.2629H246.559C246.607 56.2629 246.649 56.248 246.687 56.2152C246.726 56.1824 246.75 56.1437 246.762 56.0961L246.801 55.9084C246.816 55.8459 246.795 55.8072 246.774 55.7834C246.744 55.7506 246.705 55.7357 246.658 55.7357H245.797L246.449 52.683H247.325C247.429 52.683 247.498 52.6293 247.527 52.5221L247.566 52.3315C247.575 52.272 247.566 52.2273 247.539 52.1975C247.515 52.1677 247.474 52.1528 247.423 52.1528L247.426 52.1498Z" fill="#ECECEC"/>
<path d="M249.549 51.9592C249.573 51.989 249.606 52.0039 249.644 52.0039C249.647 52.0039 249.653 52.0039 249.656 52.0039C249.698 52.0039 249.737 51.986 249.778 51.9563L250.3 51.5393C250.35 51.4976 250.377 51.4559 250.383 51.4112C250.386 51.3725 250.374 51.3368 250.344 51.301L250.252 51.17C250.222 51.1313 250.186 51.1104 250.148 51.1074C250.106 51.1074 250.058 51.1253 250.014 51.167L249.487 51.5989C249.361 51.7001 249.406 51.7954 249.445 51.8461L249.549 51.9592V51.9592Z" fill="#ECECEC"/>
<path d="M250.16 52.1498H249.353C249.028 52.1498 248.778 52.2362 248.605 52.409C248.433 52.5817 248.322 52.7961 248.266 53.0582L247.783 55.3455C247.754 55.4736 247.742 55.5957 247.748 55.7059C247.757 55.8191 247.786 55.9174 247.843 56.0008C247.899 56.0842 247.98 56.1467 248.087 56.1914C248.191 56.2361 248.325 56.2569 248.483 56.2569H249.305C249.624 56.2569 249.874 56.1705 250.05 56.0008C250.226 55.831 250.342 55.6166 250.398 55.3575L250.881 53.0701C250.937 52.808 250.913 52.5847 250.809 52.4149C250.702 52.2392 250.485 52.1528 250.157 52.1528L250.16 52.1498ZM249.716 55.6225C249.642 55.694 249.514 55.7298 249.338 55.7298H248.659C248.48 55.7298 248.37 55.697 248.334 55.6285C248.296 55.557 248.296 55.4319 248.334 55.2532L248.772 53.1774C248.802 53.0374 248.858 52.9182 248.939 52.82C249.019 52.7276 249.15 52.68 249.332 52.68H250.005C250.178 52.68 250.282 52.7247 250.318 52.811C250.357 52.9063 250.36 53.0255 250.333 53.1654L249.895 55.2413C249.856 55.42 249.797 55.5481 249.722 55.6225H249.716Z" fill="#ECECEC"/>
<path d="M253.642 52.1498H252.093C251.983 52.1498 251.914 52.2094 251.896 52.3166L251.095 56.0782C251.086 56.1378 251.095 56.1824 251.119 56.2152C251.143 56.242 251.179 56.2569 251.229 56.2569H251.426C251.536 56.2569 251.604 56.1973 251.622 56.0901L252.349 52.677H253.472C253.645 52.677 253.749 52.7217 253.785 52.808C253.823 52.9034 253.826 53.0225 253.799 53.1625L253.18 56.0782C253.171 56.1378 253.18 56.1824 253.207 56.2122C253.231 56.242 253.272 56.2569 253.323 56.2569H253.511C253.558 56.2569 253.6 56.242 253.639 56.2093C253.677 56.1765 253.701 56.1378 253.713 56.0901L254.356 53.0701C254.413 52.808 254.392 52.5877 254.294 52.4149C254.193 52.2392 253.972 52.1498 253.642 52.1498V52.1498Z" fill="#ECECEC"/>
<path d="M259.449 52.1498H257.909C257.799 52.1498 257.731 52.2094 257.713 52.3166L256.912 56.0782C256.903 56.1378 256.912 56.1824 256.935 56.2152C256.959 56.242 256.995 56.2569 257.046 56.2569H258.594C258.913 56.2569 259.163 56.1705 259.339 56.0008C259.515 55.831 259.631 55.6166 259.687 55.3575L260.17 53.0701C260.226 52.808 260.203 52.5847 260.098 52.4149C259.991 52.2392 259.774 52.1528 259.446 52.1528L259.449 52.1498ZM259.005 55.6225C258.931 55.694 258.803 55.7298 258.627 55.7298H257.516L258.168 52.677H259.291C259.464 52.677 259.568 52.7217 259.604 52.808C259.643 52.9034 259.646 53.0225 259.619 53.1625L259.181 55.2383C259.142 55.417 259.083 55.5451 259.008 55.6196L259.005 55.6225Z" fill="#ECECEC"/>
<path d="M263.574 52.1498H262.231C262.067 52.1498 261.912 52.1826 261.775 52.2481C261.638 52.3137 261.516 52.3941 261.409 52.4953C261.302 52.5966 261.212 52.7098 261.144 52.8349C261.075 52.9599 261.028 53.085 261.001 53.2101L260.578 55.1966C260.551 55.3247 260.548 55.4528 260.563 55.5749C260.578 55.7 260.62 55.8131 260.685 55.9144C260.751 56.0157 260.84 56.0991 260.953 56.1616C261.066 56.2242 261.206 56.2569 261.373 56.2569H262.716C262.827 56.2569 262.895 56.1973 262.913 56.0901L262.952 55.9025C262.967 55.8489 262.964 55.8042 262.94 55.7744C262.916 55.7446 262.874 55.7268 262.818 55.7268H261.54C261.445 55.7268 261.367 55.7089 261.311 55.6702C261.251 55.6315 261.206 55.5838 261.174 55.5213C261.141 55.4587 261.12 55.3902 261.117 55.3188C261.111 55.2443 261.117 55.1698 261.132 55.0954L261.263 54.461H263.098C263.208 54.461 263.276 54.4014 263.294 54.2942L263.333 54.1215C263.348 54.0649 263.345 54.0172 263.318 53.9875C263.294 53.9577 263.253 53.9398 263.196 53.9398H261.376L261.513 53.3173C261.528 53.2459 261.555 53.1684 261.597 53.091C261.638 53.0136 261.689 52.9421 261.748 52.8795C261.805 52.817 261.874 52.7664 261.951 52.7276C262.028 52.6889 262.115 52.6711 262.21 52.6711H263.488C263.586 52.6711 263.655 52.6174 263.684 52.5102L263.723 52.3196C263.732 52.26 263.723 52.2154 263.699 52.1826C263.675 52.1558 263.64 52.1409 263.589 52.1409L263.574 52.1498Z" fill="#ECECEC"/>
<path d="M268.53 55.7298H267.252C267.157 55.7298 267.08 55.7119 267.023 55.6732C266.963 55.6344 266.919 55.5868 266.886 55.5242C266.853 55.4617 266.832 55.3932 266.829 55.3217C266.823 55.2473 266.829 55.1728 266.844 55.0984L267.434 52.3256C267.446 52.269 267.44 52.2243 267.413 52.1915C267.389 52.1618 267.348 52.1469 267.291 52.1469H267.103C266.993 52.1469 266.925 52.2064 266.907 52.3136L266.296 55.1907C266.269 55.3187 266.266 55.4468 266.281 55.5689C266.296 55.694 266.338 55.8072 266.403 55.9084C266.469 56.0097 266.558 56.0931 266.672 56.1556C266.785 56.2182 266.925 56.251 267.091 56.251H268.435C268.545 56.251 268.613 56.1914 268.631 56.0842L268.67 55.8965C268.685 55.8429 268.682 55.7982 268.658 55.7685C268.634 55.7387 268.593 55.7208 268.536 55.7208L268.53 55.7298Z" fill="#ECECEC"/>
<path d="M272.643 52.4149C272.586 52.3285 272.506 52.263 272.399 52.2183C272.295 52.1736 272.157 52.1528 271.994 52.1528H271.139C270.814 52.1528 270.564 52.2392 270.388 52.4119C270.216 52.5817 270.099 52.7991 270.043 53.0612L269.56 55.3515C269.534 55.4796 269.525 55.5987 269.534 55.7059C269.543 55.8161 269.572 55.9144 269.629 55.9948C269.686 56.0782 269.766 56.1437 269.873 56.1914C269.977 56.239 270.111 56.2628 270.269 56.2628H271.139C271.464 56.2628 271.714 56.1765 271.881 56.0097C272.047 55.8429 272.16 55.6255 272.217 55.3634L272.7 53.0761C272.729 52.948 272.741 52.8259 272.735 52.7157C272.726 52.6025 272.697 52.5042 272.64 52.4179L272.643 52.4149ZM271.55 55.6255C271.481 55.697 271.353 55.7327 271.172 55.7327H270.448C270.269 55.7327 270.159 55.697 270.117 55.6314C270.076 55.56 270.076 55.4349 270.114 55.2562L270.552 53.1803C270.582 53.0403 270.639 52.9212 270.719 52.8229C270.799 52.7306 270.93 52.6829 271.112 52.6829H271.83C272.003 52.6829 272.107 52.7276 272.143 52.814C272.181 52.9093 272.184 53.0284 272.158 53.1684L271.72 55.2443C271.681 55.423 271.624 55.554 271.553 55.6255H271.55Z" fill="#ECECEC"/>
<path d="M276.119 52.1498H274.909C274.74 52.1498 274.576 52.1796 274.424 52.2332C274.269 52.2898 274.129 52.3673 274.007 52.4685C273.885 52.5668 273.778 52.6919 273.694 52.8348C273.611 52.9778 273.548 53.1386 273.513 53.3114C273.477 53.4811 273.48 53.636 273.521 53.773C273.563 53.907 273.629 54.0232 273.718 54.1185C273.804 54.2108 273.909 54.2883 274.025 54.3448C274.141 54.4014 274.257 54.4401 274.367 54.461C274.445 54.4759 274.537 54.4967 274.638 54.5206C274.737 54.5444 274.826 54.5831 274.909 54.6308C274.99 54.6784 275.055 54.741 275.1 54.8124C275.145 54.8839 275.154 54.9762 275.13 55.0894C275.082 55.3068 274.981 55.4706 274.829 55.5749C274.677 55.6791 274.516 55.7327 274.352 55.7327H273.158C273.06 55.7327 272.991 55.7863 272.962 55.8936L272.923 56.0842C272.914 56.1437 272.923 56.1884 272.947 56.2212C272.97 56.248 273.006 56.2629 273.057 56.2629H274.251C274.421 56.2629 274.585 56.2331 274.74 56.1795C274.894 56.1229 275.037 56.0455 275.16 55.9442C275.282 55.8429 275.389 55.7208 275.475 55.5779C275.562 55.4349 275.624 55.2771 275.66 55.1073C275.702 54.9107 275.696 54.7469 275.648 54.6159C275.597 54.4848 275.526 54.3776 275.431 54.2972C275.338 54.2168 275.231 54.1542 275.109 54.1066C274.99 54.0619 274.88 54.0262 274.775 53.9994C274.665 53.9755 274.561 53.9458 274.46 53.913C274.361 53.8802 274.278 53.8385 274.206 53.7879C274.138 53.7373 274.087 53.6777 274.055 53.6032C274.022 53.5318 274.019 53.4394 274.043 53.3322C274.09 53.1148 274.186 52.948 274.326 52.8438C274.466 52.7366 274.626 52.683 274.805 52.683H276.014C276.113 52.683 276.181 52.6293 276.211 52.5221L276.25 52.3315C276.259 52.272 276.25 52.2273 276.226 52.1945C276.202 52.1677 276.166 52.1528 276.116 52.1528L276.119 52.1498Z" fill="#ECECEC"/>
<path d="M281.075 55.7298H279.797C279.702 55.7298 279.624 55.7119 279.568 55.6732C279.508 55.6344 279.464 55.5868 279.431 55.5242C279.398 55.4617 279.377 55.3932 279.374 55.3217C279.368 55.2473 279.374 55.1728 279.389 55.0984L279.979 52.3256C279.991 52.269 279.985 52.2243 279.958 52.1915C279.934 52.1618 279.893 52.1469 279.836 52.1469H279.648C279.538 52.1469 279.47 52.2064 279.452 52.3136L278.841 55.1907C278.814 55.3187 278.811 55.4468 278.826 55.5689C278.841 55.694 278.883 55.8072 278.948 55.9084C279.014 56.0097 279.103 56.0931 279.216 56.1556C279.33 56.2182 279.47 56.251 279.636 56.251H280.98C281.09 56.251 281.158 56.1914 281.176 56.0842L281.215 55.8965C281.23 55.8429 281.227 55.7982 281.203 55.7685C281.179 55.7387 281.137 55.7208 281.081 55.7208L281.075 55.7298Z" fill="#ECECEC"/>
<path d="M284.375 55.7298H283.097C283.002 55.7298 282.924 55.7119 282.868 55.6732C282.808 55.6344 282.763 55.5868 282.731 55.5242C282.698 55.4617 282.677 55.3932 282.674 55.3217C282.668 55.2473 282.674 55.1728 282.689 55.0984L283.279 52.3256C283.291 52.269 283.285 52.2243 283.258 52.1915C283.234 52.1618 283.192 52.1469 283.136 52.1469H282.948C282.838 52.1469 282.769 52.2064 282.752 52.3136L282.141 55.1907C282.114 55.3187 282.111 55.4468 282.126 55.5689C282.141 55.694 282.183 55.8072 282.248 55.9084C282.314 56.0097 282.403 56.0931 282.516 56.1556C282.629 56.2182 282.769 56.251 282.936 56.251H284.279C284.39 56.251 284.458 56.1914 284.476 56.0842L284.515 55.8965C284.53 55.8429 284.527 55.7982 284.503 55.7685C284.479 55.7387 284.437 55.7208 284.381 55.7208L284.375 55.7298Z" fill="#ECECEC"/>
<path d="M288.422 54.2228C288.333 53.6241 288.238 53.0195 288.142 52.409C288.127 52.3375 288.086 52.275 288.014 52.2273C287.865 52.1231 287.693 52.129 287.523 52.2273C287.466 52.2601 287.422 52.2958 287.383 52.3375V52.3047L285.221 56.0276C285.191 56.0842 285.185 56.1378 285.206 56.1855C285.221 56.2212 285.253 56.2599 285.34 56.2599H288.497C288.559 56.2599 288.613 56.2391 288.655 56.1944C288.696 56.1497 288.711 56.0961 288.699 56.0365C288.61 55.426 288.518 54.8244 288.428 54.2228H288.422ZM288.095 55.7298H285.968L287.651 52.8259C287.722 53.3114 287.794 53.7879 287.865 54.2585C287.943 54.7618 288.017 55.2562 288.095 55.7268V55.7298Z" fill="#ECECEC"/>
<path d="M291.99 52.1498H290.442C290.331 52.1498 290.263 52.2094 290.245 52.3166L289.444 56.0782C289.435 56.1378 289.444 56.1824 289.468 56.2152C289.491 56.242 289.527 56.2569 289.578 56.2569H289.774C289.885 56.2569 289.953 56.1973 289.971 56.0901L290.698 52.677H291.82C291.993 52.677 292.097 52.7217 292.133 52.808C292.172 52.9034 292.175 53.0225 292.148 53.1625L291.529 56.0782C291.52 56.1378 291.529 56.1824 291.555 56.2122C291.579 56.242 291.621 56.2569 291.672 56.2569H291.859C291.907 56.2569 291.949 56.242 291.987 56.2093C292.026 56.1765 292.05 56.1378 292.062 56.0901L292.705 53.0701C292.762 52.808 292.741 52.5877 292.643 52.4149C292.541 52.2392 292.321 52.1498 291.99 52.1498V52.1498Z" fill="#ECECEC"/>
<path d="M296.157 52.4149C296.1 52.3285 296.02 52.263 295.912 52.2183C295.808 52.1736 295.671 52.1528 295.507 52.1528H294.653C294.328 52.1528 294.078 52.2392 293.902 52.4119C293.729 52.5817 293.613 52.7991 293.557 53.0612L293.074 55.3515C293.047 55.4796 293.038 55.5987 293.047 55.7059C293.056 55.8161 293.086 55.9144 293.143 55.9948C293.199 56.0782 293.28 56.1437 293.387 56.1914C293.491 56.239 293.625 56.2628 293.783 56.2628H294.653C294.977 56.2628 295.227 56.1765 295.394 56.0097C295.561 55.8429 295.674 55.6255 295.731 55.3634L296.213 53.0761C296.243 52.948 296.255 52.8259 296.249 52.7157C296.24 52.6025 296.21 52.5042 296.154 52.4179L296.157 52.4149ZM295.064 55.6255C294.995 55.697 294.867 55.7327 294.685 55.7327H293.962C293.783 55.7327 293.673 55.697 293.631 55.6314C293.589 55.56 293.589 55.4349 293.628 55.2562L294.066 53.1803C294.096 53.0403 294.152 52.9182 294.233 52.8229C294.313 52.7306 294.444 52.6829 294.626 52.6829H295.344C295.516 52.6829 295.621 52.7276 295.656 52.814C295.695 52.9093 295.698 53.0284 295.671 53.1684L295.233 55.2443C295.195 55.423 295.138 55.554 295.067 55.6255H295.064Z" fill="#ECECEC"/>
<path d="M299.743 52.1915C299.719 52.1647 299.683 52.1498 299.633 52.1498H298.424C298.254 52.1498 298.09 52.1796 297.938 52.2332C297.783 52.2898 297.643 52.3702 297.521 52.4685C297.399 52.5668 297.292 52.6919 297.208 52.8348C297.125 52.9778 297.062 53.1386 297.027 53.3114C296.991 53.4811 296.994 53.636 297.036 53.773C297.077 53.907 297.143 54.0232 297.232 54.1185C297.319 54.2108 297.423 54.2883 297.539 54.3448C297.655 54.4014 297.768 54.4401 297.881 54.461C297.959 54.4759 298.051 54.4967 298.152 54.5206C298.251 54.5444 298.34 54.5831 298.424 54.6308C298.504 54.6784 298.569 54.741 298.614 54.8124C298.659 54.8839 298.668 54.9762 298.644 55.0894C298.596 55.3068 298.495 55.4706 298.343 55.5749C298.191 55.6791 298.03 55.7327 297.867 55.7327H296.672C296.574 55.7327 296.505 55.7863 296.476 55.8936L296.437 56.0842C296.428 56.1437 296.437 56.1884 296.461 56.2212C296.485 56.248 296.52 56.2629 296.571 56.2629H297.765C297.935 56.2629 298.099 56.2331 298.254 56.1795C298.409 56.1229 298.552 56.0455 298.674 55.9442C298.796 55.8459 298.903 55.7208 298.989 55.5779C299.076 55.4349 299.138 55.2771 299.174 55.1073C299.216 54.9107 299.21 54.7439 299.162 54.6159C299.112 54.4848 299.04 54.3776 298.945 54.2972C298.852 54.2168 298.742 54.1542 298.623 54.1066C298.504 54.0619 298.394 54.0262 298.289 53.9994C298.179 53.9755 298.075 53.9458 297.974 53.913C297.876 53.8802 297.792 53.8385 297.721 53.7879C297.652 53.7373 297.602 53.6777 297.569 53.6032C297.536 53.5318 297.533 53.4394 297.557 53.3322C297.604 53.1148 297.7 52.948 297.84 52.8438C297.98 52.7366 298.141 52.683 298.319 52.683H299.528C299.627 52.683 299.695 52.6293 299.725 52.5221L299.764 52.3315C299.773 52.272 299.764 52.2273 299.74 52.1945L299.743 52.1915Z" fill="#ECECEC"/>
<path d="M24.3099 20.7557C23.6607 19.7818 22.9012 19.0074 22.0315 18.4415C21.1619 17.8727 20.2386 17.5898 19.2587 17.5898C18.2789 17.5898 17.3735 17.8727 16.5038 18.4415C15.6342 19.0104 14.8747 19.7818 14.2254 20.7557C13.5762 21.7326 13.0609 22.8703 12.6797 24.1748C12.2985 25.4793 12.1108 26.8761 12.1108 28.3652C12.1108 29.8544 12.3015 31.2512 12.6797 32.5557C13.0579 33.8602 13.5732 35.0009 14.2254 35.9748C14.8747 36.9516 15.6342 37.723 16.5038 38.2889C17.3735 38.8577 18.2908 39.1407 19.2587 39.1407C20.2267 39.1407 21.1619 38.8577 22.0315 38.2889C22.9012 37.72 23.6607 36.9487 24.3099 35.9748C24.9592 34.9979 25.4715 33.8602 25.8467 32.5557C26.222 31.2512 26.4096 29.8544 26.4096 28.3652C26.4096 26.8761 26.222 25.4763 25.8467 24.1748C25.4715 22.8703 24.9592 21.7326 24.3099 20.7557ZM22.7404 30.7121C22.5557 31.4537 22.2996 32.1089 21.9779 32.6569C21.6414 33.2288 21.2393 33.6874 20.7777 34.024C20.2803 34.3873 19.7293 34.572 19.1426 34.572C18.5559 34.572 18.0198 34.3873 17.5224 34.024C17.0637 33.6874 16.6587 33.2288 16.3192 32.6599C15.9916 32.1089 15.7295 31.4537 15.5448 30.7091C15.3631 29.9765 15.2708 29.1872 15.2708 28.3652C15.2708 27.5432 15.3631 26.754 15.5448 26.0213C15.7295 25.2767 15.9886 24.6215 16.3162 24.0705C16.6557 23.5017 17.0608 23.043 17.5194 22.7065C18.0168 22.3431 18.5618 22.1585 19.1396 22.1585C19.7174 22.1585 20.2773 22.3431 20.7747 22.7065C21.2363 23.043 21.6384 23.5046 21.9749 24.0735C22.2966 24.6245 22.5527 25.2797 22.7374 26.0213C22.9191 26.754 23.0114 27.5432 23.0114 28.3652C23.0114 29.1872 22.9191 29.9765 22.7374 30.7091" fill="#ECECEC"/>
<path d="M1.15355 17.8696C0.700854 17.9173 0.361328 18.2985 0.361328 18.7542V41.3207C0.361328 41.8181 0.763398 42.2172 1.25779 42.2172L3.33962 41.687C3.83402 41.687 4.23609 41.285 4.23609 40.7906V33.3716C10.6305 32.8147 12.477 25.4196 10.5024 21.119C8.81372 17.4408 3.23538 17.6522 1.15355 17.8696M4.23609 29.756V21.2649C5.37082 21.3483 6.68127 21.6997 7.20842 22.8106C8.15552 24.812 7.28288 29.4671 4.23609 29.756" fill="#ECECEC"/>
<path d="M36.8868 27.7546C36.047 27.0041 35.088 26.4799 34.263 26.0689L33.8728 25.8753C33.2772 25.5805 32.6636 25.2767 32.0858 24.9312C31.7553 24.7317 31.4276 24.4338 31.1655 24.0884C30.823 23.6446 30.695 23.1174 30.8022 22.6082C30.9094 22.1078 31.243 21.6849 31.7195 21.4436C32.199 21.2024 32.7172 21.1458 33.2623 21.2798C34.2362 21.5151 35.1148 22.0363 35.907 22.5843C36.3478 22.8911 36.8779 22.8107 37.1966 22.3222C37.4974 21.8606 37.8131 21.3573 38.1616 20.7259C38.3909 20.3089 38.3313 19.7758 37.9054 19.4571C37.6076 19.2337 37.2591 18.9746 36.8868 18.7632C34.7365 17.5361 32.5922 17.283 30.5103 18.0156C28.086 18.8674 26.707 21.3871 27.1538 24.142C27.3921 25.6133 28.1515 26.8344 29.4709 27.8678C30.2601 28.4843 31.1417 28.9102 31.9935 29.3182L32.482 29.5565C33.1819 29.902 33.9026 30.313 34.4238 30.998C34.8348 31.5401 34.9778 32.2012 34.811 32.8058C34.6531 33.3896 34.2272 33.8453 33.6405 34.0597C33.0061 34.295 32.339 34.2592 31.7136 33.9614C31.0315 33.6368 30.3018 33.2287 29.4232 32.6748C29.0748 32.4544 28.8127 32.4127 28.5536 32.4842C28.2915 32.5586 28.1098 32.7343 27.9222 33.0917L27.3772 34.1252C26.844 35.0723 27.0376 35.388 27.7107 35.9747C29.1284 37.2137 30.8469 37.7945 32.9079 37.8302H32.9674C33.8907 37.8302 34.6978 37.6694 35.4364 37.3447C37.3991 36.4721 38.5368 34.977 38.8138 32.8982C39.0848 30.8729 38.4385 29.1455 36.8898 27.7636" fill="#ECECEC"/>
<path d="M106.582 17.974H104.5C104.006 17.974 103.604 18.3761 103.604 18.8705V31.0546L99.1036 18.7096C99.0589 18.4654 98.919 18.2569 98.7224 18.1259C98.6807 18.0961 98.633 18.0723 98.5854 18.0514C98.4752 18.0038 98.3531 17.974 98.222 17.974H96.1402C95.6458 17.974 95.2437 18.3761 95.2437 18.8705V35.0307L95.1187 39.1199C95.1187 39.6143 95.479 39.9448 96.0151 40.0163L98.0969 40.3022C98.5913 40.3022 98.9934 39.9002 98.9934 39.4058L99.1185 35.0307V28.815L103.646 41.1153C103.675 41.1987 103.72 41.2553 103.771 41.297C103.925 41.4936 104.176 41.6276 104.494 41.705L106.576 42.2352C107.038 42.3275 107.473 41.8331 107.473 41.3387V18.8705C107.473 18.3761 107.071 17.974 106.576 17.974" fill="#ECECEC"/>
<path d="M50.4384 18.6262C50.4384 18.2658 50.1466 17.9769 49.7892 17.9769H40.1425C39.7821 17.9769 39.4902 18.2688 39.4902 18.6262V21.2233C39.4902 21.5836 39.7821 21.8755 40.1425 21.8755H43.0284V35.9211C43.0284 36.4155 43.4305 36.8176 43.9249 36.8176L46.0067 36.767C46.5011 36.767 46.9032 36.3649 46.9032 35.8705V21.8755H49.7892C50.1466 21.8755 50.4384 21.5836 50.4384 21.2233V18.6262V18.6262Z" fill="#ECECEC"/>
<path d="M76.4418 27.7964L76.2571 27.6683C76.0606 27.5283 75.8461 27.4271 75.6168 27.3199C75.5126 27.2722 75.4113 27.2216 75.3071 27.1471C75.4292 27.0608 75.5513 26.9774 75.6734 26.8969C75.9385 26.7182 76.1886 26.5485 76.4239 26.3579C77.4127 25.5478 77.9786 24.7436 78.196 23.8263C78.5713 22.2568 78.1067 20.8421 76.8141 19.624C75.6823 18.5547 74.2438 18.0127 72.5432 18.0127H66.7921C66.2799 18.0127 65.8867 18.4118 65.8867 18.9181V36.0224C65.8867 36.5228 66.2799 36.9249 66.7921 36.9249C66.7921 36.9249 73.3503 37.2971 73.7852 37.2465C79.1074 36.3947 79.3486 30.5245 77.7076 28.806C77.3383 28.4189 76.8826 28.1002 76.4418 27.7934M69.7615 21.1905L69.8359 21.1756C69.8866 21.1637 69.9372 21.1518 69.9849 21.1518L71.334 21.1459C71.6378 21.1459 71.9446 21.1459 72.2484 21.1578C73.5111 21.1905 74.4225 22.09 74.4165 23.2992C74.4136 24.55 73.4784 25.518 72.2454 25.5567C71.9356 25.5656 71.6229 25.5686 71.3102 25.5686C71.06 25.5686 70.8069 25.5686 70.5507 25.5656C70.2916 25.5656 70.0265 25.5627 69.7466 25.5478L69.7585 21.1935L69.7615 21.1905ZM74.8871 32.0196C74.7144 32.9369 73.7762 34.0836 72.7219 34.027C72.3496 34.0061 70.0921 33.893 69.7466 33.8781L69.7585 28.8775C69.7585 28.8775 71.9118 29.0175 72.2305 29.0205C72.8887 29.0294 73.4843 29.2706 74.0055 29.7353C74.6548 30.316 75.0569 31.0904 74.8841 32.0166" fill="#ECECEC"/>
<path d="M62.4529 20.4519C61.8037 19.5703 61.0442 18.8734 60.1746 18.3582C59.3049 17.8459 58.3816 17.5898 57.4047 17.5898C56.4279 17.5898 55.5195 17.8459 54.6498 18.3582C53.7802 18.8734 53.0207 19.5703 52.3714 20.4519C51.7222 21.3335 51.2069 22.3669 50.8257 23.5434C50.4474 24.7228 50.2568 25.9856 50.2568 27.3347C50.2568 28.6839 50.4474 29.9467 50.8257 31.1261C51.2039 32.3055 51.7192 33.336 52.3714 34.2176C53.0207 35.0991 53.7802 35.799 54.6498 36.3113C55.5195 36.8236 56.4368 37.0827 57.4047 37.0827C58.3727 37.0827 59.3079 36.8265 60.1746 36.3113C61.0442 35.799 61.8037 35.0991 62.4529 34.2176C63.1022 33.336 63.6145 32.3055 63.9897 31.1261C64.365 29.9467 64.5526 28.6839 64.5526 27.3347C64.5526 25.9856 64.365 24.7228 63.9897 23.5434C63.6145 22.364 63.1022 21.3335 62.4529 20.4519ZM60.8804 29.4821C60.6958 30.1611 60.4337 30.7598 60.1061 31.2631C59.7695 31.7843 59.3645 32.2042 58.8998 32.511C58.4084 32.8356 57.8634 33.0024 57.2856 33.0024C56.7078 33.0024 56.1807 32.8386 55.6892 32.511C55.2276 32.2042 54.8196 31.7873 54.4771 31.269C54.1435 30.7657 53.8814 30.1641 53.6938 29.4821C53.5091 28.812 53.4168 28.0882 53.4168 27.3347C53.4168 26.5812 53.5091 25.8575 53.6938 25.1874C53.8814 24.5053 54.1435 23.9067 54.4771 23.4004C54.8196 22.8822 55.2276 22.4622 55.6892 22.1585C56.1807 21.8338 56.7197 21.667 57.2886 21.667C57.8574 21.667 58.4084 21.8308 58.9028 22.1585C59.3674 22.4652 59.7725 22.8852 60.109 23.4064C60.4366 23.9127 60.6958 24.5113 60.8834 25.1874C61.068 25.8575 61.1604 26.5812 61.1604 27.3347C61.1604 28.0882 61.068 28.812 60.8834 29.4821" fill="#ECECEC"/>
<path d="M91.5628 21.1638C90.9135 20.2822 90.1541 19.5823 89.2844 19.07C88.4148 18.5578 87.4915 18.3016 86.5146 18.3016C85.5377 18.3016 84.6293 18.5578 83.7597 19.07C82.89 19.5853 82.1306 20.2822 81.4813 21.1638C80.832 22.0453 80.3168 23.0758 79.9356 24.2552C79.5573 25.4346 79.3667 26.6974 79.3667 28.0466C79.3667 29.3958 79.5573 30.6586 79.9356 31.838C80.3168 33.0174 80.832 34.0479 81.4813 34.9294C82.1306 35.811 82.89 36.5109 83.7597 37.0232C84.6293 37.5354 85.5467 37.7945 86.5146 37.7945C87.4825 37.7945 88.4177 37.5384 89.2844 37.0232C90.1541 36.5109 90.9135 35.811 91.5628 34.9294C92.2121 34.0479 92.7243 33.0174 93.0996 31.838C93.4749 30.6586 93.6625 29.3958 93.6625 28.0466C93.6625 26.6974 93.4749 25.4346 93.0996 24.2552C92.7243 23.0758 92.2121 22.0453 91.5628 21.1638ZM89.9903 30.1939C89.8056 30.873 89.5435 31.4716 89.2189 31.975C88.8823 32.4962 88.4743 32.9161 88.0127 33.2229C87.5213 33.5475 86.9762 33.7143 86.3985 33.7143C85.8207 33.7143 85.2935 33.5505 84.7991 33.2229C84.3375 32.9161 83.9294 32.4991 83.5869 31.9809C83.2534 31.4776 82.9913 30.876 82.8037 30.1939C82.619 29.5238 82.5267 28.8001 82.5267 28.0466C82.5267 27.2931 82.619 26.5694 82.8037 25.8992C82.9913 25.2172 83.2534 24.6186 83.5869 24.1123C83.9294 23.594 84.3375 23.1741 84.7991 22.8703C85.2905 22.5457 85.8296 22.3789 86.3985 22.3789C86.9673 22.3789 87.5183 22.5427 88.0127 22.8703C88.4773 23.1771 88.8823 23.597 89.2189 24.1182C89.5465 24.6245 89.8056 25.2232 89.9933 25.8992C90.1779 26.5694 90.2702 27.2931 90.2702 28.0466C90.2702 28.8001 90.1779 29.5238 89.9933 30.1939" fill="#ECECEC"/>
<path d="M74.9378 42.7026C74.1009 42.0593 72.9007 42.2142 72.2574 43.0511C68.3409 48.141 61.6636 51.1818 54.3936 51.1818C47.1235 51.1818 40.4492 48.144 36.5298 43.0511C35.8864 42.2142 34.6862 42.0593 33.8493 42.7026C33.0124 43.346 32.8575 44.5462 33.5008 45.3831C38.138 51.4082 45.9471 55.003 54.3936 55.003C62.84 55.003 70.6491 51.4052 75.2863 45.3831C75.9296 44.5462 75.7747 43.346 74.9378 42.7026" fill="#ECECEC"/>
<path d="M88.1079 3.19561C88.1079 3.03479 88.1377 2.88289 88.1973 2.74291C88.2568 2.60293 88.3402 2.48082 88.4445 2.37658C88.5517 2.27234 88.6768 2.19193 88.8257 2.13236C88.9716 2.0728 89.1354 2.04301 89.3111 2.04301C89.4869 2.04301 89.6477 2.0728 89.7966 2.13236C89.9455 2.19193 90.0736 2.27234 90.1808 2.37658C90.288 2.48082 90.3714 2.60293 90.431 2.74291C90.4905 2.88289 90.5203 3.03181 90.5203 3.19561C90.5203 3.35942 90.4905 3.50833 90.431 3.64831C90.3714 3.78829 90.288 3.9104 90.1808 4.01464C90.0736 4.11888 89.9455 4.1993 89.7966 4.25886C89.6477 4.31843 89.4869 4.34821 89.3111 4.34821C89.1354 4.34821 88.9716 4.31843 88.8257 4.25886C88.6768 4.1993 88.5517 4.11888 88.4445 4.01464C88.3402 3.9104 88.2539 3.78829 88.1973 3.64831C88.1377 3.50833 88.1079 3.35942 88.1079 3.19561ZM88.7006 3.19561C88.7006 3.28198 88.7155 3.3624 88.7512 3.43686C88.784 3.51131 88.8287 3.57386 88.8852 3.62747C88.9418 3.68108 89.0074 3.72277 89.0818 3.75255C89.1563 3.78234 89.2337 3.79723 89.3171 3.79723C89.4005 3.79723 89.4779 3.78234 89.5524 3.75255C89.6268 3.72277 89.6924 3.68108 89.749 3.62747C89.8055 3.57386 89.8502 3.50833 89.883 3.43686C89.9157 3.3624 89.9336 3.28496 89.9336 3.19561C89.9336 3.10626 89.9157 3.02883 89.883 2.95437C89.8502 2.87991 89.8055 2.81737 89.749 2.76376C89.6924 2.71015 89.6268 2.66846 89.5524 2.63867C89.4779 2.60889 89.4005 2.594 89.3171 2.594C89.2337 2.594 89.1563 2.60889 89.0818 2.63867C89.0074 2.66846 88.9418 2.71015 88.8852 2.76376C88.8287 2.81737 88.784 2.87991 88.7512 2.95437C88.7185 3.02883 88.7006 3.10626 88.7006 3.19561Z" fill="#ECECEC"/>
<path d="M82.6279 8.95264C82.6279 8.628 82.6875 8.32422 82.8096 8.04426C82.9287 7.7643 83.0955 7.52008 83.31 7.30862C83.5214 7.10014 83.7775 6.93633 84.0754 6.8172C84.3702 6.69807 84.6978 6.6385 85.0552 6.6385C85.4126 6.6385 85.7313 6.69807 86.0321 6.8172C86.3299 6.93633 86.5861 7.09716 86.8035 7.30862C87.0179 7.5171 87.1847 7.7643 87.3068 8.04426C87.426 8.32422 87.4855 8.628 87.4855 8.95264C87.4855 9.27727 87.426 9.58106 87.3068 9.86102C87.1877 10.141 87.0179 10.3852 86.8035 10.5967C86.5891 10.8051 86.3329 10.9689 86.0321 11.0881C85.7343 11.2072 85.4097 11.2668 85.0552 11.2668C84.7008 11.2668 84.3732 11.2072 84.0754 11.0881C83.7775 10.9689 83.5244 10.8081 83.31 10.5967C83.0985 10.3882 82.9317 10.144 82.8096 9.86102C82.6905 9.58106 82.6279 9.27727 82.6279 8.95264" fill="#ECECEC"/>
<path d="M92.1136 18.1377C90.2015 18.1198 88.7451 16.714 88.7451 14.8377C88.7451 12.9614 90.2045 11.5318 92.1076 11.5318C94.0107 11.5288 95.4701 12.9733 95.4761 14.8675C95.479 16.7647 94.0227 18.1555 92.1136 18.1347M92.1136 16.6664C93.0964 16.6753 93.8439 15.8771 93.841 14.8467C93.841 13.8132 93.0904 13.0001 92.1106 13.0001C91.1307 13.0001 90.3832 13.8043 90.3832 14.8318C90.3832 15.8593 91.1307 16.6634 92.1136 16.6694" fill="#ECECEC"/>
<path d="M26.4721 13.852L26.5703 7.08528H26.5048L24.703 13.9651L24.0656 14.4982H23.2495L22.6211 13.9949L20.8729 7.08528H20.8222L20.9056 13.852L20.2534 14.4982H19.1991L18.5498 13.852V4.8456L20.3874 3.008L22.1803 4.40481L23.6814 10.4091H23.7439L25.2212 4.44055L27.0677 3.008L29.0185 4.95878V13.852L28.3722 14.4982H27.1213L26.4721 13.852Z" fill="#ECECEC"/>
<path d="M47.7578 13.852V12.5415L47.8174 12.2735L51.2811 5.29532L48.693 5.30128L48.0467 4.65499L48.0527 3.65429L48.699 3.008H53.6042L54.2505 3.65429V4.92006L54.185 5.20598L50.745 12.1633L53.6042 12.1603L54.2505 12.8066V13.852L53.6042 14.4982H48.4071L47.7578 13.852Z" fill="#ECECEC"/>
<path d="M49.3454 3.65429C49.3454 4.01168 49.0565 4.30057 48.6991 4.30057C48.3417 4.30057 48.0498 4.01168 48.0498 3.65429C48.0498 3.29689 48.3387 3.008 48.6991 3.008C49.0594 3.008 49.3454 3.29689 49.3454 3.65429Z" fill="#ECECEC"/>
<path d="M54.2506 3.65429C54.2506 4.01168 53.9617 4.30057 53.6043 4.30057C53.2469 4.30057 52.958 4.01168 52.958 3.65429C52.958 3.29689 53.2469 3.008 53.6043 3.008C53.9617 3.008 54.2506 3.29689 54.2506 3.65429Z" fill="#ECECEC"/>
<path d="M54.2506 4.92006C54.2506 5.27746 53.9617 5.56635 53.6043 5.56635C53.2469 5.56635 52.958 5.27746 52.958 4.92006C52.958 4.56267 53.2469 4.27377 53.6043 4.27377C53.9617 4.27377 54.2506 4.56267 54.2506 4.92006Z" fill="#ECECEC"/>
<path d="M49.3424 4.65503C49.3424 5.01243 49.0535 5.30132 48.6961 5.30132C48.3387 5.30132 48.0498 5.01243 48.0498 4.65503C48.0498 4.29764 48.3387 4.00874 48.6961 4.00874C49.0535 4.00874 49.3424 4.29764 49.3424 4.65503Z" fill="#ECECEC"/>
<path d="M54.2506 12.8066C54.2506 13.164 53.9617 13.4529 53.6043 13.4529C53.2469 13.4529 52.958 13.164 52.958 12.8066C52.958 12.4492 53.2469 12.1604 53.6043 12.1604C53.9617 12.1604 54.2506 12.4492 54.2506 12.8066Z" fill="#ECECEC"/>
<path d="M54.2506 13.852C54.2506 14.2094 53.9617 14.4983 53.6043 14.4983C53.2469 14.4983 52.958 14.2094 52.958 13.852C52.958 13.4946 53.2469 13.2057 53.6043 13.2057C53.9617 13.2057 54.2506 13.4946 54.2506 13.852Z" fill="#ECECEC"/>
<path d="M49.0533 13.852C49.0533 14.2094 48.7644 14.4983 48.407 14.4983C48.0496 14.4983 47.7607 14.2094 47.7607 13.852C47.7607 13.4946 48.0496 13.2057 48.407 13.2057C48.7644 13.2057 49.0533 13.4946 49.0533 13.852Z" fill="#ECECEC"/>
<path d="M49.0533 12.5415C49.0533 12.8989 48.7644 13.1878 48.407 13.1878C48.0496 13.1878 47.7607 12.8989 47.7607 12.5415C47.7607 12.1841 48.0496 11.8952 48.407 11.8952C48.7644 11.8952 49.0533 12.1841 49.0533 12.5415Z" fill="#ECECEC"/>
<path d="M29.0182 13.852C29.0182 14.2094 28.7293 14.4983 28.3719 14.4983C28.0145 14.4983 27.7256 14.2094 27.7256 13.852C27.7256 13.4946 28.0145 13.2057 28.3719 13.2057C28.7293 13.2057 29.0182 13.4946 29.0182 13.852Z" fill="#ECECEC"/>
<path d="M19.8453 13.852C19.8453 14.2094 19.5564 14.4983 19.199 14.4983C18.8416 14.4983 18.5527 14.2094 18.5527 13.852C18.5527 13.4946 18.8416 13.2057 19.199 13.2057C19.5564 13.2057 19.8453 13.4946 19.8453 13.852Z" fill="#ECECEC"/>
<path d="M20.9055 13.852C20.9055 14.2094 20.6106 14.4983 20.2532 14.4983C19.8958 14.4983 19.6069 14.2094 19.6069 13.852C19.6069 13.4946 19.8958 13.2057 20.2532 13.2057C20.6106 13.2057 20.9055 13.4946 20.9055 13.852Z" fill="#ECECEC"/>
<path d="M23.8956 13.852C23.8956 14.2094 23.6067 14.4983 23.2493 14.4983C22.8919 14.4983 22.603 14.2094 22.603 13.852C22.603 13.4946 22.8919 13.2057 23.2493 13.2057C23.6067 13.2057 23.8956 13.4946 23.8956 13.852Z" fill="#ECECEC"/>
<path d="M24.712 13.852C24.712 14.2094 24.4231 14.4983 24.0657 14.4983C23.7083 14.4983 23.4194 14.2094 23.4194 13.852C23.4194 13.4946 23.7083 13.2057 24.0657 13.2057C24.4231 13.2057 24.712 13.4946 24.712 13.852Z" fill="#ECECEC"/>
<path d="M27.7677 13.852C27.7677 14.2094 27.4788 14.4983 27.1214 14.4983C26.764 14.4983 26.4751 14.2094 26.4751 13.852C26.4751 13.4946 26.764 13.2057 27.1214 13.2057C27.4788 13.2057 27.7677 13.4946 27.7677 13.852Z" fill="#ECECEC"/>
<path d="M29.0187 4.94388C29.0187 6.01309 28.155 6.87679 27.0857 6.87679C26.0165 6.87679 25.1528 6.01011 25.1528 4.94388C25.1528 3.87765 26.0195 3.01097 27.0857 3.01097C28.152 3.01097 29.0187 3.87765 29.0187 4.94388" fill="#ECECEC"/>
<path d="M22.225 4.8456C22.225 5.8612 21.403 5.99522 20.3874 5.99522C19.3718 5.99522 18.5498 5.8612 18.5498 4.8456C18.5498 3.83 19.3718 3.008 20.3874 3.008C21.403 3.008 22.225 3.83 22.225 4.8456" fill="#ECECEC"/>
<path d="M35.7521 14.0039L35.3947 12.4045H32.8125L32.461 13.9711L31.8237 14.4983H30.5728L29.9414 13.6971L32.1692 4.50608L34.1676 3.008L36.1958 4.61627L38.3849 13.703L37.7564 14.5012H36.3864L35.758 14.0068L35.7521 14.0039ZM34.1438 5.98331H34.0783L33.1044 10.3942H35.067L34.1408 5.98331H34.1438Z" fill="#ECECEC"/>
<path d="M36.2496 5.08982C36.2496 6.23944 35.237 4.66988 34.0874 4.66988C32.9378 4.66988 32.083 6.23944 32.083 5.08982C32.083 3.9402 33.0152 3.008 34.1648 3.008C35.3145 3.008 36.2467 3.9402 36.2467 5.08982" fill="#ECECEC"/>
<path d="M31.2193 13.852C31.2193 14.2094 30.9304 14.4983 30.573 14.4983C30.2157 14.4983 29.9268 14.2094 29.9268 13.852C29.9268 13.4946 30.2157 13.2057 30.573 13.2057C30.9304 13.2057 31.2193 13.4946 31.2193 13.852Z" fill="#ECECEC"/>
<path d="M32.4703 13.852C32.4703 14.2094 32.1814 14.4983 31.824 14.4983C31.4666 14.4983 31.1777 14.2094 31.1777 13.852C31.1777 13.4946 31.4666 13.2057 31.824 13.2057C32.1814 13.2057 32.4703 13.4946 32.4703 13.852Z" fill="#ECECEC"/>
<path d="M37.0299 13.852C37.0299 14.2094 36.741 14.4983 36.3836 14.4983C36.0262 14.4983 35.7373 14.2094 35.7373 13.852C35.7373 13.4946 36.0262 13.2057 36.3836 13.2057C36.741 13.2057 37.0299 13.4946 37.0299 13.852Z" fill="#ECECEC"/>
<path d="M38.4 13.852C38.4 14.2094 38.1111 14.4983 37.7537 14.4983C37.3963 14.4983 37.1074 14.2094 37.1074 13.852C37.1074 13.4946 37.3963 13.2057 37.7537 13.2057C38.1111 13.2057 38.4 13.4946 38.4 13.852Z" fill="#ECECEC"/>
<path d="M60.8415 14.0039L60.4811 12.4045H57.9019L57.5504 13.9711L56.9131 14.4983H55.6592L55.0278 13.6971L57.2556 4.50608L59.254 3.008L61.2822 4.61627L63.4713 13.703L62.8429 14.5012H61.4729L60.8444 14.0068L60.8415 14.0039ZM59.2332 5.98331H59.1677L58.1938 10.3942H60.1565L59.2302 5.98331H59.2332Z" fill="#ECECEC"/>
<path d="M61.3361 5.08982C61.3361 6.23944 60.3234 4.66988 59.1738 4.66988C58.0242 4.66988 57.1694 6.23944 57.1694 5.08982C57.1694 3.9402 58.1016 3.008 59.2513 3.008C60.4009 3.008 61.3331 3.9402 61.3331 5.08982" fill="#ECECEC"/>
<path d="M56.3058 13.852C56.3058 14.2094 56.0169 14.4983 55.6595 14.4983C55.3021 14.4983 55.0132 14.2094 55.0132 13.852C55.0132 13.4946 55.3021 13.2057 55.6595 13.2057C56.0169 13.2057 56.3058 13.4946 56.3058 13.852Z" fill="#ECECEC"/>
<path d="M57.5592 13.852C57.5592 14.2094 57.2703 14.4983 56.9129 14.4983C56.5555 14.4983 56.2666 14.2094 56.2666 13.852C56.2666 13.4946 56.5555 13.2057 56.9129 13.2057C57.2703 13.2057 57.5592 13.4946 57.5592 13.852Z" fill="#ECECEC"/>
<path d="M62.1163 13.852C62.1163 14.2094 61.8274 14.4983 61.47 14.4983C61.1126 14.4983 60.8237 14.2094 60.8237 13.852C60.8237 13.4946 61.1126 13.2057 61.47 13.2057C61.8274 13.2057 62.1163 13.4946 62.1163 13.852Z" fill="#ECECEC"/>
<path d="M63.4894 13.852C63.4894 14.2094 63.2005 14.4983 62.8431 14.4983C62.4857 14.4983 62.1968 14.2094 62.1968 13.852C62.1968 13.4946 62.4857 13.2057 62.8431 13.2057C63.2005 13.2057 63.4894 13.4946 63.4894 13.852Z" fill="#ECECEC"/>
<path d="M78.5148 14.0039L78.1574 12.4045H75.5752L75.2238 13.9711L74.5864 14.4983H73.3326L72.7012 13.6971L74.9289 4.50608L76.9274 3.008L78.9556 4.61627L81.1446 13.703L80.5162 14.5012H79.1462L78.5178 14.0068L78.5148 14.0039ZM76.9065 5.98331H76.841L75.8671 10.3942H77.8298L76.9035 5.98331H76.9065Z" fill="#ECECEC"/>
<path d="M79.0094 5.08982C79.0094 6.23944 77.9968 4.66988 76.8472 4.66988C75.6975 4.66988 74.8428 6.23944 74.8428 5.08982C74.8428 3.9402 75.775 3.008 76.9246 3.008C78.0742 3.008 79.0064 3.9402 79.0064 5.08982" fill="#ECECEC"/>
<path d="M73.9786 13.852C73.9786 14.2094 73.6897 14.4983 73.3323 14.4983C72.9749 14.4983 72.686 14.2094 72.686 13.852C72.686 13.4946 72.9749 13.2057 73.3323 13.2057C73.6897 13.2057 73.9786 13.4946 73.9786 13.852Z" fill="#ECECEC"/>
<path d="M75.2325 13.852C75.2325 14.2094 74.9436 14.4983 74.5862 14.4983C74.2288 14.4983 73.9399 14.2094 73.9399 13.852C73.9399 13.4946 74.2288 13.2057 74.5862 13.2057C74.9436 13.2057 75.2325 13.4946 75.2325 13.852Z" fill="#ECECEC"/>
<path d="M79.7896 13.852C79.7896 14.2094 79.5007 14.4983 79.1434 14.4983C78.786 14.4983 78.4971 14.2094 78.4971 13.852C78.4971 13.4946 78.786 13.2057 79.1434 13.2057C79.5007 13.2057 79.7896 13.4946 79.7896 13.852Z" fill="#ECECEC"/>
<path d="M81.1622 13.852C81.1622 14.2094 80.8733 14.4983 80.5159 14.4983C80.1585 14.4983 79.8696 14.2094 79.8696 13.852C79.8696 13.4946 80.1585 13.2057 80.5159 13.2057C80.8733 13.2057 81.1622 13.4946 81.1622 13.852Z" fill="#ECECEC"/>
<path d="M43.7969 13.4022L41.5542 7.50522H41.5066L41.5661 13.8579L40.9169 14.5042H39.8953L39.249 13.8579V4.69669L42.4894 4.03253L44.7529 10.1053H44.8006L44.7589 3.66322H44.7529L45.4022 3.008H46.3552L46.9926 3.66322V12.8483L43.7969 13.4022Z" fill="#ECECEC"/>
<path d="M42.6235 4.69669C42.6235 5.62889 41.867 6.38538 40.9348 6.38538C40.0026 6.38538 39.2461 5.62889 39.2461 4.69669C39.2461 3.76448 40.0026 3.008 40.9348 3.008C41.867 3.008 42.6235 3.76448 42.6235 4.69669Z" fill="#ECECEC"/>
<path d="M46.0514 3.65429C46.0514 4.01168 45.7625 4.30057 45.4051 4.30057C45.0477 4.30057 44.7588 4.02062 44.7588 3.66322C44.7588 3.30582 45.0477 3.008 45.4051 3.008C45.7625 3.008 46.0514 3.29689 46.0514 3.65429" fill="#ECECEC"/>
<path d="M46.9952 3.66322C46.9952 4.02062 46.7063 4.30057 46.3489 4.30057C45.9915 4.30057 45.7026 4.01168 45.7026 3.65429C45.7026 3.29689 45.9915 3.008 46.3489 3.008C46.7063 3.008 46.9952 3.30582 46.9952 3.66322Z" fill="#ECECEC"/>
<path d="M40.5416 13.8579C40.5416 14.2153 40.2527 14.5042 39.8953 14.5042C39.5379 14.5042 39.249 14.2153 39.249 13.8579C39.249 13.5005 39.5379 13.2116 39.8953 13.2116C40.2527 13.2116 40.5416 13.5005 40.5416 13.8579Z" fill="#ECECEC"/>
<path d="M41.5631 13.8579C41.5631 14.2153 41.2742 14.5042 40.9168 14.5042C40.5594 14.5042 40.2705 14.2153 40.2705 13.8579C40.2705 13.5005 40.5594 13.2116 40.9168 13.2116C41.2742 13.2116 41.5631 13.5005 41.5631 13.8579Z" fill="#ECECEC"/>
<path d="M46.9956 12.8632C46.9956 13.7715 46.2599 14.5072 45.3515 14.5072C44.4432 14.5072 43.7075 13.7715 43.7075 12.8632C43.7075 11.9548 44.4432 11.2191 45.3515 11.2191C46.2599 11.2191 46.9956 11.9548 46.9956 12.8632" fill="#ECECEC"/>
<path d="M68.6861 13.4022L66.4434 7.50522H66.3928L66.4553 13.8579L65.8061 14.5042H64.7845L64.1353 13.8579V4.69669L67.3756 4.03253L69.6421 10.1053H69.6898L69.6451 3.66322H69.6421L70.2914 3.008H71.2444L71.8818 3.66322V12.8483L68.6861 13.4022Z" fill="#ECECEC"/>
<path d="M67.5126 4.69669C67.5126 5.62889 66.7562 6.38538 65.8239 6.38538C64.8917 6.38538 64.1353 5.62889 64.1353 4.69669C64.1353 3.76448 64.8917 3.008 65.8239 3.008C66.7562 3.008 67.5126 3.76448 67.5126 4.69669Z" fill="#ECECEC"/>
<path d="M70.941 3.65429C70.941 4.01168 70.6521 4.30057 70.2947 4.30057C69.9373 4.30057 69.6484 4.02062 69.6484 3.66322C69.6484 3.30582 69.9373 3.008 70.2947 3.008C70.6521 3.008 70.941 3.29689 70.941 3.65429" fill="#ECECEC"/>
<path d="M71.8819 3.66322C71.8819 4.02062 71.593 4.30057 71.2356 4.30057C70.8782 4.30057 70.5894 4.01168 70.5894 3.65429C70.5894 3.29689 70.8782 3.008 71.2356 3.008C71.593 3.008 71.8819 3.30582 71.8819 3.66322Z" fill="#ECECEC"/>
<path d="M65.4312 13.8579C65.4312 14.2153 65.1424 14.5042 64.785 14.5042C64.4276 14.5042 64.1387 14.2153 64.1387 13.8579C64.1387 13.5005 64.4276 13.2116 64.785 13.2116C65.1424 13.2116 65.4312 13.5005 65.4312 13.8579Z" fill="#ECECEC"/>
<path d="M66.4527 13.8579C66.4527 14.2153 66.1638 14.5042 65.8064 14.5042C65.4491 14.5042 65.1602 14.2153 65.1602 13.8579C65.1602 13.5005 65.4491 13.2116 65.8064 13.2116C66.1638 13.2116 66.4527 13.5005 66.4527 13.8579Z" fill="#ECECEC"/>
<path d="M71.8823 12.8632C71.8823 13.7715 71.1466 14.5072 70.2383 14.5072C69.3299 14.5072 68.5942 13.7715 68.5942 12.8632C68.5942 11.9548 69.3299 11.2191 70.2383 11.2191C71.1466 11.2191 71.8823 11.9548 71.8823 12.8632" fill="#ECECEC"/>
<path d="M137.479 1.63092L125.804 52.4449L126.399 52.5816L138.075 1.76764L137.479 1.63092Z" fill="#ECECEC"/>
</svg>
